<mxfile host="app.diagrams.net" agent="Mozilla/5.0 (Windows NT 10.0; Win64; x64) AppleWebKit/537.36 (KHTML, like Gecko) Chrome/131.0.0.0 Safari/537.36" version="26.0.6">
  <diagram name="Page-1" id="Yq0LrjVp695sY35_ZqNd">
    <mxGraphModel dx="743" dy="411" grid="1" gridSize="10" guides="1" tooltips="1" connect="1" arrows="1" fold="1" page="1" pageScale="1" pageWidth="827" pageHeight="1169" math="0" shadow="0">
      <root>
        <mxCell id="0" />
        <mxCell id="1" parent="0" />
        <mxCell id="l0zdKHDjjXvTVLJIqY8e-1" value="&lt;p style=&quot;margin:0px;margin-top:4px;text-align:center;&quot;&gt;&lt;i&gt;Gym&lt;/i&gt;&lt;/p&gt;&lt;hr size=&quot;1&quot; style=&quot;border-style:solid;&quot;&gt;&lt;p style=&quot;margin:0px;margin-left:4px;&quot;&gt;+ Name: String&lt;br&gt;+ PhoneNumber: Integer&lt;/p&gt;&lt;p style=&quot;margin:0px;margin-left:4px;&quot;&gt;+ GymType: String&lt;/p&gt;&lt;div&gt;&amp;nbsp;+ Address: String&lt;/div&gt;&lt;div&gt;&amp;nbsp;+ Website: String&lt;/div&gt;&lt;hr size=&quot;1&quot; style=&quot;border-style:solid;&quot;&gt;&lt;p style=&quot;margin:0px;margin-left:4px;&quot;&gt;+ Service():String&lt;br&gt;&lt;/p&gt;" style="verticalAlign=top;align=left;overflow=fill;html=1;whiteSpace=wrap;" vertex="1" parent="1">
          <mxGeometry x="40" y="40" width="150" height="140" as="geometry" />
        </mxCell>
        <mxCell id="l0zdKHDjjXvTVLJIqY8e-2" value="&lt;p style=&quot;margin:0px;margin-top:4px;text-align:center;&quot;&gt;&lt;i&gt;Equipment&lt;/i&gt;&lt;/p&gt;&lt;hr size=&quot;1&quot; style=&quot;border-style:solid;&quot;&gt;&lt;p style=&quot;margin:0px;margin-left:4px;&quot;&gt;+ EquipmentID: Interger&lt;br&gt;+ EquipnmentNumber: Integer&lt;/p&gt;&lt;hr size=&quot;1&quot; style=&quot;border-style:solid;&quot;&gt;&lt;p style=&quot;margin:0px;margin-left:4px;&quot;&gt;+ EquipmentStatus():String&lt;br&gt;&lt;/p&gt;" style="verticalAlign=top;align=left;overflow=fill;html=1;whiteSpace=wrap;" vertex="1" parent="1">
          <mxGeometry x="350" y="65" width="170" height="90" as="geometry" />
        </mxCell>
        <mxCell id="l0zdKHDjjXvTVLJIqY8e-3" value="" style="endArrow=none;html=1;rounded=0;" edge="1" parent="1" source="l0zdKHDjjXvTVLJIqY8e-1">
          <mxGeometry relative="1" as="geometry">
            <mxPoint x="190" y="110" as="sourcePoint" />
            <mxPoint x="350" y="110" as="targetPoint" />
          </mxGeometry>
        </mxCell>
        <mxCell id="l0zdKHDjjXvTVLJIqY8e-4" value="1...*" style="resizable=0;html=1;whiteSpace=wrap;align=right;verticalAlign=bottom;" connectable="0" vertex="1" parent="l0zdKHDjjXvTVLJIqY8e-3">
          <mxGeometry x="1" relative="1" as="geometry">
            <mxPoint x="-10" as="offset" />
          </mxGeometry>
        </mxCell>
        <mxCell id="l0zdKHDjjXvTVLJIqY8e-5" value="&lt;p style=&quot;margin:0px;margin-top:4px;text-align:center;&quot;&gt;&lt;i&gt;Manager&lt;/i&gt;&lt;/p&gt;&lt;hr size=&quot;1&quot; style=&quot;border-style:solid;&quot;&gt;&lt;p style=&quot;margin:0px;margin-left:4px;&quot;&gt;+ UserID: Interger&lt;br&gt;+ Email: String&lt;/p&gt;&lt;hr size=&quot;1&quot; style=&quot;border-style:solid;&quot;&gt;&lt;p style=&quot;margin:0px;margin-left:4px;&quot;&gt;+ Admission():void&lt;br&gt;&lt;/p&gt;" style="verticalAlign=top;align=left;overflow=fill;html=1;whiteSpace=wrap;" vertex="1" parent="1">
          <mxGeometry x="45" y="250" width="140" height="90" as="geometry" />
        </mxCell>
        <mxCell id="l0zdKHDjjXvTVLJIqY8e-6" value="" style="endArrow=none;html=1;rounded=0;exitX=0.445;exitY=1.007;exitDx=0;exitDy=0;exitPerimeter=0;entryX=0.443;entryY=0.007;entryDx=0;entryDy=0;entryPerimeter=0;" edge="1" parent="1" source="l0zdKHDjjXvTVLJIqY8e-1" target="l0zdKHDjjXvTVLJIqY8e-5">
          <mxGeometry relative="1" as="geometry">
            <mxPoint x="160" y="380" as="sourcePoint" />
            <mxPoint x="320" y="380" as="targetPoint" />
          </mxGeometry>
        </mxCell>
        <mxCell id="l0zdKHDjjXvTVLJIqY8e-7" value="1" style="resizable=0;html=1;whiteSpace=wrap;align=right;verticalAlign=bottom;" connectable="0" vertex="1" parent="l0zdKHDjjXvTVLJIqY8e-6">
          <mxGeometry x="1" relative="1" as="geometry" />
        </mxCell>
        <mxCell id="l0zdKHDjjXvTVLJIqY8e-8" value="&lt;p style=&quot;margin:0px;margin-top:4px;text-align:center;&quot;&gt;&lt;i&gt;Package&lt;/i&gt;&lt;/p&gt;&lt;hr size=&quot;1&quot; style=&quot;border-style:solid;&quot;&gt;&lt;p style=&quot;margin:0px;margin-left:4px;&quot;&gt;+ PackageID: Integer&lt;br&gt;+ PackageName: String&lt;/p&gt;&lt;p style=&quot;margin:0px;margin-left:4px;&quot;&gt;+ PackageDuration: Date&lt;/p&gt;&lt;div&gt;&amp;nbsp;+ PackageFee: Double&lt;/div&gt;&lt;hr size=&quot;1&quot; style=&quot;border-style:solid;&quot;&gt;&lt;p style=&quot;margin:0px;margin-left:4px;&quot;&gt;+ Offer():Boolean&lt;br&gt;&lt;/p&gt;" style="verticalAlign=top;align=left;overflow=fill;html=1;whiteSpace=wrap;" vertex="1" parent="1">
          <mxGeometry x="360" y="235" width="150" height="120" as="geometry" />
        </mxCell>
        <mxCell id="l0zdKHDjjXvTVLJIqY8e-9" value="" style="endArrow=none;html=1;rounded=0;entryX=-0.017;entryY=0.497;entryDx=0;entryDy=0;entryPerimeter=0;" edge="1" parent="1" source="l0zdKHDjjXvTVLJIqY8e-5" target="l0zdKHDjjXvTVLJIqY8e-8">
          <mxGeometry relative="1" as="geometry">
            <mxPoint x="200" y="294.83" as="sourcePoint" />
            <mxPoint x="360" y="294.83" as="targetPoint" />
          </mxGeometry>
        </mxCell>
        <mxCell id="l0zdKHDjjXvTVLJIqY8e-10" value="1...*" style="resizable=0;html=1;whiteSpace=wrap;align=right;verticalAlign=bottom;" connectable="0" vertex="1" parent="l0zdKHDjjXvTVLJIqY8e-9">
          <mxGeometry x="1" relative="1" as="geometry">
            <mxPoint x="-10" as="offset" />
          </mxGeometry>
        </mxCell>
        <mxCell id="l0zdKHDjjXvTVLJIqY8e-11" value="&lt;p style=&quot;margin:0px;margin-top:4px;text-align:center;&quot;&gt;&lt;i&gt;Member&lt;/i&gt;&lt;/p&gt;&lt;hr size=&quot;1&quot; style=&quot;border-style:solid;&quot;&gt;&lt;p style=&quot;margin:0px;margin-left:4px;&quot;&gt;+ MemberID: Integer&lt;br&gt;+ Name: String&lt;/p&gt;&lt;p style=&quot;margin:0px;margin-left:4px;&quot;&gt;+ PhoneNumber: String&lt;/p&gt;&lt;div&gt;&amp;nbsp;+ Address: String&lt;/div&gt;&lt;div&gt;&amp;nbsp;&lt;span style=&quot;background-color: transparent; color: light-dark(rgb(0, 0, 0), rgb(255, 255, 255));&quot;&gt;+ Age: Intenger&lt;/span&gt;&lt;/div&gt;&lt;div&gt;&lt;span style=&quot;background-color: transparent; color: light-dark(rgb(0, 0, 0), rgb(255, 255, 255));&quot;&gt;&amp;nbsp;&lt;/span&gt;&lt;span style=&quot;background-color: transparent; color: light-dark(rgb(0, 0, 0), rgb(255, 255, 255));&quot;&gt;+ BM: Intenger&lt;/span&gt;&lt;/div&gt;&lt;hr size=&quot;1&quot; style=&quot;border-style:solid;&quot;&gt;&lt;p style=&quot;margin:0px;margin-left:4px;&quot;&gt;+ Payment()&lt;br&gt;&lt;/p&gt;&lt;p style=&quot;margin:0px;margin-left:4px;&quot;&gt;+ Membership()&lt;/p&gt;&lt;p style=&quot;margin:0px;margin-left:4px;&quot;&gt;+ ViewProfile()&lt;/p&gt;" style="verticalAlign=top;align=left;overflow=fill;html=1;whiteSpace=wrap;" vertex="1" parent="1">
          <mxGeometry x="361" y="450" width="150" height="180" as="geometry" />
        </mxCell>
        <mxCell id="l0zdKHDjjXvTVLJIqY8e-12" value="" style="endArrow=none;html=1;rounded=0;exitX=0.5;exitY=1;exitDx=0;exitDy=0;entryX=0.5;entryY=0;entryDx=0;entryDy=0;" edge="1" parent="1" source="l0zdKHDjjXvTVLJIqY8e-8" target="l0zdKHDjjXvTVLJIqY8e-11">
          <mxGeometry relative="1" as="geometry">
            <mxPoint x="540" y="440" as="sourcePoint" />
            <mxPoint x="700" y="440" as="targetPoint" />
          </mxGeometry>
        </mxCell>
        <mxCell id="l0zdKHDjjXvTVLJIqY8e-13" value="1" style="resizable=0;html=1;whiteSpace=wrap;align=right;verticalAlign=bottom;" connectable="0" vertex="1" parent="l0zdKHDjjXvTVLJIqY8e-12">
          <mxGeometry x="1" relative="1" as="geometry" />
        </mxCell>
        <mxCell id="l0zdKHDjjXvTVLJIqY8e-14" value="&lt;p style=&quot;margin:0px;margin-top:4px;text-align:center;&quot;&gt;&lt;i&gt;Trainer&lt;/i&gt;&lt;/p&gt;&lt;hr size=&quot;1&quot; style=&quot;border-style:solid;&quot;&gt;&lt;p style=&quot;margin:0px;margin-left:4px;&quot;&gt;+ EmailID: String&lt;br&gt;+ Name: String&lt;/p&gt;&amp;nbsp;+ PhoneNumber: String&lt;br&gt;&amp;nbsp;+ Address: String&lt;hr size=&quot;1&quot; style=&quot;border-style:solid;&quot;&gt;&lt;p style=&quot;margin:0px;margin-left:4px;&quot;&gt;+ Salary()&lt;br&gt;&lt;/p&gt;" style="verticalAlign=top;align=left;overflow=fill;html=1;whiteSpace=wrap;" vertex="1" parent="1">
          <mxGeometry x="45" y="380" width="140" height="120" as="geometry" />
        </mxCell>
        <mxCell id="l0zdKHDjjXvTVLJIqY8e-15" value="" style="endArrow=none;html=1;rounded=0;exitX=0.5;exitY=1;exitDx=0;exitDy=0;entryX=0.5;entryY=0;entryDx=0;entryDy=0;" edge="1" parent="1" source="l0zdKHDjjXvTVLJIqY8e-5" target="l0zdKHDjjXvTVLJIqY8e-14">
          <mxGeometry relative="1" as="geometry">
            <mxPoint x="170" y="355" as="sourcePoint" />
            <mxPoint x="105" y="390" as="targetPoint" />
          </mxGeometry>
        </mxCell>
        <mxCell id="l0zdKHDjjXvTVLJIqY8e-16" value="1...5" style="resizable=0;html=1;whiteSpace=wrap;align=right;verticalAlign=bottom;" connectable="0" vertex="1" parent="l0zdKHDjjXvTVLJIqY8e-15">
          <mxGeometry x="1" relative="1" as="geometry">
            <mxPoint x="-10" as="offset" />
          </mxGeometry>
        </mxCell>
        <mxCell id="l0zdKHDjjXvTVLJIqY8e-17" value="&lt;p style=&quot;margin:0px;margin-top:4px;text-align:center;&quot;&gt;&lt;i&gt;Plan&lt;/i&gt;&lt;/p&gt;&lt;hr size=&quot;1&quot; style=&quot;border-style:solid;&quot;&gt;&lt;p style=&quot;margin:0px;margin-left:4px;&quot;&gt;+ WorkoutID: Integer&lt;br&gt;+ WorkoutName: String&lt;/p&gt;&amp;nbsp;+ SetNumber: String&lt;br&gt;&lt;hr size=&quot;1&quot; style=&quot;border-style:solid;&quot;&gt;&lt;p style=&quot;margin:0px;margin-left:4px;&quot;&gt;+ DietCHart()&lt;br&gt;&lt;/p&gt;" style="verticalAlign=top;align=left;overflow=fill;html=1;whiteSpace=wrap;" vertex="1" parent="1">
          <mxGeometry x="40" y="540" width="140" height="110" as="geometry" />
        </mxCell>
        <mxCell id="l0zdKHDjjXvTVLJIqY8e-18" value="" style="endArrow=none;html=1;rounded=0;exitX=0.467;exitY=0.991;exitDx=0;exitDy=0;exitPerimeter=0;entryX=0.5;entryY=0;entryDx=0;entryDy=0;" edge="1" parent="1" source="l0zdKHDjjXvTVLJIqY8e-14" target="l0zdKHDjjXvTVLJIqY8e-17">
          <mxGeometry relative="1" as="geometry">
            <mxPoint x="114.7" y="520" as="sourcePoint" />
            <mxPoint x="120" y="530" as="targetPoint" />
          </mxGeometry>
        </mxCell>
        <mxCell id="l0zdKHDjjXvTVLJIqY8e-19" value="1...5" style="resizable=0;html=1;whiteSpace=wrap;align=right;verticalAlign=bottom;" connectable="0" vertex="1" parent="l0zdKHDjjXvTVLJIqY8e-18">
          <mxGeometry x="1" relative="1" as="geometry">
            <mxPoint x="-10" as="offset" />
          </mxGeometry>
        </mxCell>
        <mxCell id="l0zdKHDjjXvTVLJIqY8e-20" value="" style="endArrow=none;html=1;rounded=0;exitX=0.5;exitY=1;exitDx=0;exitDy=0;entryX=0.5;entryY=1;entryDx=0;entryDy=0;" edge="1" parent="1" source="l0zdKHDjjXvTVLJIqY8e-11" target="l0zdKHDjjXvTVLJIqY8e-17">
          <mxGeometry relative="1" as="geometry">
            <mxPoint x="414" y="660" as="sourcePoint" />
            <mxPoint x="414" y="701" as="targetPoint" />
            <Array as="points">
              <mxPoint x="436" y="680" />
              <mxPoint x="110" y="680" />
            </Array>
          </mxGeometry>
        </mxCell>
        <mxCell id="l0zdKHDjjXvTVLJIqY8e-21" value="1...2" style="resizable=0;html=1;whiteSpace=wrap;align=right;verticalAlign=bottom;" connectable="0" vertex="1" parent="l0zdKHDjjXvTVLJIqY8e-20">
          <mxGeometry x="1" relative="1" as="geometry">
            <mxPoint x="30" y="20" as="offset" />
          </mxGeometry>
        </mxCell>
      </root>
    </mxGraphModel>
  </diagram>
</mxfile>
